solid OpenSCAD_Model
  facet normal -1 0 0
    outer loop
      vertex 0 0 0
      vertex 0 10.76393202250021 6.595773934819386
      vertex 0 11.066218544576378 6.510520318409294
    endloop
  endfacet
  facet normal -1 0 0
    outer loop
      vertex 0 0 0
      vertex 0 11.066218544576378 6.510520318409294
      vertex 0 11.374262139839077 6.449246637619449
    endloop
  endfacet
  facet normal -1 0 0
    outer loop
      vertex 0 0 0
      vertex 0 9.910005741136205 6.989439342583632
      vertex 0 10.184038001041813 6.835973903246529
    endloop
  endfacet
  facet normal -1 0 0
    outer loop
      vertex 0 0 0
      vertex 0 9.402207806679264 7.358376137599876
      vertex 0 9.648858990830107 7.1639320225002106
    endloop
  endfacet
  facet normal -1 0 0
    outer loop
      vertex 0 0 0
      vertex 0 9.17157287525381 7.5715728752538105
      vertex 0 9.402207806679264 7.358376137599876
    endloop
  endfacet
  facet normal -1 0 0
    outer loop
      vertex 0 0 0
      vertex 0 9.648858990830107 7.1639320225002106
      vertex 0 9.910005741136205 6.989439342583632
    endloop
  endfacet
  facet normal -1 0 0
    outer loop
      vertex 0 0 0
      vertex 0 10.184038001041813 6.835973903246529
      vertex 0 10.469266270539642 6.704481869954853
    endloop
  endfacet
  facet normal -1 0 0
    outer loop
      vertex 0 0 0
      vertex 0 10.469266270539642 6.704481869954853
      vertex 0 10.76393202250021 6.595773934819386
    endloop
  endfacet
  facet normal -1 0 0
    outer loop
      vertex 0 0 0
      vertex 0 11.374262139839077 6.449246637619449
      vertex 0 11.68616361708862 6.412330665067488
    endloop
  endfacet
  facet normal -1 0 0
    outer loop
      vertex 0 0 0
      vertex 0 11.68616361708862 6.412330665067488
      vertex 0 12 6.4
    endloop
  endfacet
  facet normal -1 0 0
    outer loop
      vertex 0 0 0
      vertex 0 12 6.4
      vertex 0 12.31383638291138 6.412330665067488
    endloop
  endfacet
  facet normal -1 0 0
    outer loop
      vertex 0 0 0
      vertex 0 12.31383638291138 6.412330665067488
      vertex 0 12.625737860160923 6.449246637619449
    endloop
  endfacet
  facet normal -1 0 0
    outer loop
      vertex 0 0 0
      vertex 0 12.625737860160923 6.449246637619449
      vertex 0 12.933781455423622 6.510520318409294
    endloop
  endfacet
  facet normal -1 0 0
    outer loop
      vertex 0 0 0
      vertex 0 12.933781455423622 6.510520318409294
      vertex 0 13.23606797749979 6.595773934819386
    endloop
  endfacet
  facet normal -1 0 0
    outer loop
      vertex 0 0 0
      vertex 0 13.23606797749979 6.595773934819386
      vertex 0 13.530733729460358 6.704481869954853
    endloop
  endfacet
  facet normal -1 0 0
    outer loop
      vertex 0 0 0
      vertex 0 13.530733729460358 6.704481869954853
      vertex 0 13.815961998958187 6.835973903246529
    endloop
  endfacet
  facet normal -1 0 0
    outer loop
      vertex 0 0 0
      vertex 0 0 10
      vertex 0 8.049246637619449 9.774262139839077
    endloop
  endfacet
  facet normal -1 0 0
    outer loop
      vertex 0 0 0
      vertex 0 8.76393202250021 8.048858990830109
      vertex 0 8.958376137599876 7.802207806679266
    endloop
  endfacet
  facet normal -1 0 0
    outer loop
      vertex 0 0 0
      vertex 0 8.589439342583631 8.310005741136205
      vertex 0 8.76393202250021 8.048858990830109
    endloop
  endfacet
  facet normal -1 0 0
    outer loop
      vertex 0 0 0
      vertex 0 8.304481869954852 8.869266270539642
      vertex 0 8.435973903246529 8.584038001041813
    endloop
  endfacet
  facet normal -1 0 0
    outer loop
      vertex 0 0 0
      vertex 0 8.435973903246529 8.584038001041813
      vertex 0 8.589439342583631 8.310005741136205
    endloop
  endfacet
  facet normal -1 0 0
    outer loop
      vertex 0 0 0
      vertex 0 8.195773934819385 9.16393202250021
      vertex 0 8.304481869954852 8.869266270539642
    endloop
  endfacet
  facet normal -1 0 0
    outer loop
      vertex 0 0 0
      vertex 0 8.110520318409293 9.466218544576378
      vertex 0 8.195773934819385 9.16393202250021
    endloop
  endfacet
  facet normal -1 0 0
    outer loop
      vertex 0 0 0
      vertex 0 8.049246637619449 9.774262139839077
      vertex 0 8.110520318409293 9.466218544576378
    endloop
  endfacet
  facet normal -1 0 0
    outer loop
      vertex 0 0 10
      vertex 0 8.022528801195186 10
      vertex 0 8.049246637619449 9.774262139839077
    endloop
  endfacet
  facet normal -1 0 0
    outer loop
      vertex 0 0 0
      vertex 0 8.958376137599876 7.802207806679266
      vertex 0 9.17157287525381 7.5715728752538105
    endloop
  endfacet
  facet normal 0 -1 0
    outer loop
      vertex 0 0 0
      vertex 70 0 10
      vertex 0 0 10
    endloop
  endfacet
  facet normal 0 0 1
    outer loop
      vertex 0 0 10
      vertex 70 0 10
      vertex 0 8.022528801195186 10
    endloop
  endfacet
  facet normal -1 0 0
    outer loop
      vertex 0 0 0
      vertex 0 24 10
      vertex 0 24 0
    endloop
  endfacet
  facet normal 0 0 -1
    outer loop
      vertex 0 0 0
      vertex 0 24 0
      vertex 70 24 0
    endloop
  endfacet
  facet normal 0 1 0
    outer loop
      vertex 0 24 0
      vertex 0 24 10
      vertex 70 24 0
    endloop
  endfacet
  facet normal -1 0 0
    outer loop
      vertex 0 0 0
      vertex 0 13.815961998958187 6.835973903246529
      vertex 0 24 10
    endloop
  endfacet
  facet normal -1 0 0
    outer loop
      vertex 0 24 10
      vertex 0 13.815961998958187 6.835973903246529
      vertex 0 14.089994258863795 6.989439342583632
    endloop
  endfacet
  facet normal -1 0 0
    outer loop
      vertex 0 24 10
      vertex 0 14.089994258863795 6.989439342583632
      vertex 0 14.351141009169893 7.1639320225002106
    endloop
  endfacet
  facet normal -1 0 0
    outer loop
      vertex 0 24 10
      vertex 0 14.351141009169893 7.1639320225002106
      vertex 0 14.597792193320736 7.358376137599876
    endloop
  endfacet
  facet normal -1 0 0
    outer loop
      vertex 0 24 10
      vertex 0 14.597792193320736 7.358376137599876
      vertex 0 14.82842712474619 7.5715728752538105
    endloop
  endfacet
  facet normal -1 0 0
    outer loop
      vertex 0 24 10
      vertex 0 14.82842712474619 7.5715728752538105
      vertex 0 15.041623862400124 7.802207806679266
    endloop
  endfacet
  facet normal -1 0 0
    outer loop
      vertex 0 24 10
      vertex 0 15.041623862400124 7.802207806679266
      vertex 0 15.23606797749979 8.048858990830109
    endloop
  endfacet
  facet normal -1 0 0
    outer loop
      vertex 0 24 10
      vertex 0 15.23606797749979 8.048858990830109
      vertex 0 15.410560657416369 8.310005741136205
    endloop
  endfacet
  facet normal -1 0 0
    outer loop
      vertex 0 24 10
      vertex 0 15.410560657416369 8.310005741136205
      vertex 0 15.564026096753471 8.584038001041813
    endloop
  endfacet
  facet normal -1 0 0
    outer loop
      vertex 0 24 10
      vertex 0 15.564026096753471 8.584038001041813
      vertex 0 15.695518130045148 8.869266270539642
    endloop
  endfacet
  facet normal -1 0 0
    outer loop
      vertex 0 24 10
      vertex 0 15.695518130045148 8.869266270539642
      vertex 0 15.804226065180615 9.16393202250021
    endloop
  endfacet
  facet normal -1 0 0
    outer loop
      vertex 0 24 10
      vertex 0 15.804226065180615 9.16393202250021
      vertex 0 15.889479681590707 9.466218544576378
    endloop
  endfacet
  facet normal -1 0 0
    outer loop
      vertex 0 24 10
      vertex 0 15.889479681590707 9.466218544576378
      vertex 0 15.950753362380551 9.774262139839077
    endloop
  endfacet
  facet normal -1 0 0
    outer loop
      vertex 0 24 10
      vertex 0 15.950753362380551 9.774262139839077
      vertex 0 15.977471198804814 10
    endloop
  endfacet
  facet normal 0 0 1
    outer loop
      vertex 0 24 10
      vertex 0 15.977471198804814 10
      vertex 70 15.977471198804814 10
    endloop
  endfacet
  facet normal 0 -1 0
    outer loop
      vertex 0 0 0
      vertex 70 0 0
      vertex 70 0 10
    endloop
  endfacet
  facet normal 0 0 -1
    outer loop
      vertex 0 0 0
      vertex 70 24 0
      vertex 70 0 0
    endloop
  endfacet
  facet normal 1 0 0
    outer loop
      vertex 70 0 0
      vertex 70 24 0
      vertex 70 0 10
    endloop
  endfacet
  facet normal 0 0 1
    outer loop
      vertex 70 0 10
      vertex 70 8.022528801195186 10
      vertex 0 8.022528801195186 10
    endloop
  endfacet
  facet normal 1 0 0
    outer loop
      vertex 70 0 10
      vertex 70 8.958376137599876 7.802207806679266
      vertex 70 8.76393202250021 8.048858990830109
    endloop
  endfacet
  facet normal 1 0 0
    outer loop
      vertex 70 0 10
      vertex 70 8.76393202250021 8.048858990830109
      vertex 70 8.589439342583631 8.310005741136205
    endloop
  endfacet
  facet normal 1 0 0
    outer loop
      vertex 70 0 10
      vertex 70 8.589439342583631 8.310005741136205
      vertex 70 8.435973903246529 8.584038001041813
    endloop
  endfacet
  facet normal 1 0 0
    outer loop
      vertex 70 0 10
      vertex 70 8.435973903246529 8.584038001041813
      vertex 70 8.304481869954852 8.869266270539642
    endloop
  endfacet
  facet normal 1 0 0
    outer loop
      vertex 70 0 10
      vertex 70 8.304481869954852 8.869266270539642
      vertex 70 8.195773934819385 9.16393202250021
    endloop
  endfacet
  facet normal 1 0 0
    outer loop
      vertex 70 0 10
      vertex 70 8.195773934819385 9.16393202250021
      vertex 70 8.110520318409293 9.466218544576378
    endloop
  endfacet
  facet normal 1 0 0
    outer loop
      vertex 70 0 10
      vertex 70 8.110520318409293 9.466218544576378
      vertex 70 8.049246637619449 9.774262139839077
    endloop
  endfacet
  facet normal 1 0 0
    outer loop
      vertex 70 0 10
      vertex 70 8.049246637619449 9.774262139839077
      vertex 70 8.022528801195186 10
    endloop
  endfacet
  facet normal 1 0 0
    outer loop
      vertex 70 0 10
      vertex 70 24 0
      vertex 70 10.184038001041813 6.835973903246529
    endloop
  endfacet
  facet normal 1 0 0
    outer loop
      vertex 70 0 10
      vertex 70 10.184038001041813 6.835973903246529
      vertex 70 9.910005741136205 6.989439342583632
    endloop
  endfacet
  facet normal 1 0 0
    outer loop
      vertex 70 0 10
      vertex 70 9.910005741136205 6.989439342583632
      vertex 70 9.648858990830107 7.1639320225002106
    endloop
  endfacet
  facet normal 1 0 0
    outer loop
      vertex 70 0 10
      vertex 70 9.648858990830107 7.1639320225002106
      vertex 70 9.402207806679264 7.358376137599876
    endloop
  endfacet
  facet normal 1 0 0
    outer loop
      vertex 70 0 10
      vertex 70 9.402207806679264 7.358376137599876
      vertex 70 9.17157287525381 7.5715728752538105
    endloop
  endfacet
  facet normal 1 0 0
    outer loop
      vertex 70 0 10
      vertex 70 9.17157287525381 7.5715728752538105
      vertex 70 8.958376137599876 7.802207806679266
    endloop
  endfacet
  facet normal 1 0 0
    outer loop
      vertex 70 24 0
      vertex 70 10.469266270539642 6.704481869954853
      vertex 70 10.184038001041813 6.835973903246529
    endloop
  endfacet
  facet normal 1 0 0
    outer loop
      vertex 70 24 0
      vertex 70 11.066218544576378 6.510520318409294
      vertex 70 10.76393202250021 6.595773934819386
    endloop
  endfacet
  facet normal 1 0 0
    outer loop
      vertex 70 24 0
      vertex 70 11.374262139839077 6.449246637619449
      vertex 70 11.066218544576378 6.510520318409294
    endloop
  endfacet
  facet normal 1 0 0
    outer loop
      vertex 70 24 0
      vertex 70 11.68616361708862 6.412330665067488
      vertex 70 11.374262139839077 6.449246637619449
    endloop
  endfacet
  facet normal 1 0 0
    outer loop
      vertex 70 24 0
      vertex 70 12 6.4
      vertex 70 11.68616361708862 6.412330665067488
    endloop
  endfacet
  facet normal 1 0 0
    outer loop
      vertex 70 24 0
      vertex 70 12.31383638291138 6.412330665067488
      vertex 70 12 6.4
    endloop
  endfacet
  facet normal 1 0 0
    outer loop
      vertex 70 24 0
      vertex 70 12.625737860160923 6.449246637619449
      vertex 70 12.31383638291138 6.412330665067488
    endloop
  endfacet
  facet normal 1 0 0
    outer loop
      vertex 70 24 0
      vertex 70 10.76393202250021 6.595773934819386
      vertex 70 10.469266270539642 6.704481869954853
    endloop
  endfacet
  facet normal 1 0 0
    outer loop
      vertex 70 24 0
      vertex 70 12.933781455423622 6.510520318409294
      vertex 70 12.625737860160923 6.449246637619449
    endloop
  endfacet
  facet normal 1 0 0
    outer loop
      vertex 70 24 0
      vertex 70 13.23606797749979 6.595773934819386
      vertex 70 12.933781455423622 6.510520318409294
    endloop
  endfacet
  facet normal 1 0 0
    outer loop
      vertex 70 24 0
      vertex 70 13.530733729460358 6.704481869954853
      vertex 70 13.23606797749979 6.595773934819386
    endloop
  endfacet
  facet normal 1 0 0
    outer loop
      vertex 70 24 0
      vertex 70 13.815961998958187 6.835973903246529
      vertex 70 13.530733729460358 6.704481869954853
    endloop
  endfacet
  facet normal 1 0 0
    outer loop
      vertex 70 24 0
      vertex 70 14.089994258863795 6.989439342583632
      vertex 70 13.815961998958187 6.835973903246529
    endloop
  endfacet
  facet normal 1 0 0
    outer loop
      vertex 70 24 0
      vertex 70 14.351141009169893 7.1639320225002106
      vertex 70 14.089994258863795 6.989439342583632
    endloop
  endfacet
  facet normal 1 0 0
    outer loop
      vertex 70 24 0
      vertex 70 14.597792193320736 7.358376137599876
      vertex 70 14.351141009169893 7.1639320225002106
    endloop
  endfacet
  facet normal 1 0 0
    outer loop
      vertex 70 24 0
      vertex 70 14.82842712474619 7.5715728752538105
      vertex 70 14.597792193320736 7.358376137599876
    endloop
  endfacet
  facet normal 0 1 0
    outer loop
      vertex 0 24 10
      vertex 70 24 10
      vertex 70 24 0
    endloop
  endfacet
  facet normal 0 0 1
    outer loop
      vertex 0 24 10
      vertex 70 15.977471198804814 10
      vertex 70 24 10
    endloop
  endfacet
  facet normal 1 0 0
    outer loop
      vertex 70 24 0
      vertex 70 15.041623862400124 7.802207806679266
      vertex 70 14.82842712474619 7.5715728752538105
    endloop
  endfacet
  facet normal 1 0 0
    outer loop
      vertex 70 24 0
      vertex 70 15.23606797749979 8.048858990830109
      vertex 70 15.041623862400124 7.802207806679266
    endloop
  endfacet
  facet normal 1 0 0
    outer loop
      vertex 70 24 0
      vertex 70 15.410560657416369 8.310005741136205
      vertex 70 15.23606797749979 8.048858990830109
    endloop
  endfacet
  facet normal 1 0 0
    outer loop
      vertex 70 24 0
      vertex 70 15.564026096753471 8.584038001041813
      vertex 70 15.410560657416369 8.310005741136205
    endloop
  endfacet
  facet normal 1 0 0
    outer loop
      vertex 70 24 0
      vertex 70 15.695518130045148 8.869266270539642
      vertex 70 15.564026096753471 8.584038001041813
    endloop
  endfacet
  facet normal 1 0 0
    outer loop
      vertex 70 24 0
      vertex 70 15.804226065180615 9.16393202250021
      vertex 70 15.695518130045148 8.869266270539642
    endloop
  endfacet
  facet normal 1 0 0
    outer loop
      vertex 70 24 0
      vertex 70 15.889479681590707 9.466218544576378
      vertex 70 15.804226065180615 9.16393202250021
    endloop
  endfacet
  facet normal 1 0 0
    outer loop
      vertex 70 24 0
      vertex 70 15.950753362380551 9.774262139839077
      vertex 70 15.889479681590707 9.466218544576378
    endloop
  endfacet
  facet normal 1 0 0
    outer loop
      vertex 70 24 0
      vertex 70 24 10
      vertex 70 15.950753362380551 9.774262139839077
    endloop
  endfacet
  facet normal 1 0 0
    outer loop
      vertex 70 24 10
      vertex 70 15.977471198804814 10
      vertex 70 15.950753362380551 9.774262139839077
    endloop
  endfacet
  facet normal 0 0.41865973753742813 0.9081431738250813
    outer loop
      vertex 0 10.184038001041813 6.835973903246529
      vertex 70 10.184038001041813 6.835973903246529
      vertex 0 10.469266270539642 6.704481869954853
    endloop
  endfacet
  facet normal 0 0.5555702330195998 0.8314696123025469
    outer loop
      vertex 0 9.648858990830107 7.1639320225002106
      vertex 70 9.648858990830107 7.1639320225002106
      vertex 0 9.910005741136205 6.989439342583632
    endloop
  endfacet
  facet normal 0 0.6190939493098334 0.7853169308807454
    outer loop
      vertex 0 9.402207806679264 7.358376137599876
      vertex 70 9.402207806679264 7.358376137599876
      vertex 0 9.648858990830107 7.1639320225002106
    endloop
  endfacet
  facet normal 0 0.4886212414969548 0.8724960070727973
    outer loop
      vertex 0 9.910005741136205 6.989439342583632
      vertex 70 9.910005741136205 6.989439342583632
      vertex 0 10.184038001041813 6.835973903246529
    endloop
  endfacet
  facet normal 0 0.19509032201612875 0.9807852804032304
    outer loop
      vertex 0 11.066218544576378 6.510520318409294
      vertex 70 11.066218544576378 6.510520318409294
      vertex 0 11.374262139839077 6.449246637619449
    endloop
  endfacet
  facet normal 0 0.3461170570774947 0.9381913359224835
    outer loop
      vertex 0 10.469266270539642 6.704481869954853
      vertex 70 10.469266270539642 6.704481869954853
      vertex 0 10.76393202250021 6.595773934819386
    endloop
  endfacet
  facet normal 0 0.2714404498650732 0.9624552364536477
    outer loop
      vertex 0 10.76393202250021 6.595773934819386
      vertex 70 10.76393202250021 6.595773934819386
      vertex 0 11.066218544576378 6.510520318409294
    endloop
  endfacet
  facet normal 0 0.11753739745783834 0.9930684569549262
    outer loop
      vertex 0 11.374262139839077 6.449246637619449
      vertex 70 11.374262139839077 6.449246637619449
      vertex 0 11.68616361708862 6.412330665067488
    endloop
  endfacet
  facet normal 0 0.03925981575906742 0.9992290362407229
    outer loop
      vertex 0 11.68616361708862 6.412330665067488
      vertex 70 11.68616361708862 6.412330665067488
      vertex 0 12 6.4
    endloop
  endfacet
  facet normal 0 0.7853169308807465 0.619093949309832
    outer loop
      vertex 0 8.958376137599876 7.802207806679266
      vertex 0 8.76393202250021 8.048858990830109
      vertex 70 8.76393202250021 8.048858990830109
    endloop
  endfacet
  facet normal 0 0.8314696123025451 0.5555702330196025
    outer loop
      vertex 0 8.76393202250021 8.048858990830109
      vertex 0 8.589439342583631 8.310005741136205
      vertex 70 8.589439342583631 8.310005741136205
    endloop
  endfacet
  facet normal 0 0.8724960070727973 0.4886212414969548
    outer loop
      vertex 0 8.589439342583631 8.310005741136205
      vertex 0 8.435973903246529 8.584038001041813
      vertex 70 8.435973903246529 8.584038001041813
    endloop
  endfacet
  facet normal 0 0.9381913359224845 0.3461170570774923
    outer loop
      vertex 0 8.304481869954852 8.869266270539642
      vertex 0 8.195773934819385 9.16393202250021
      vertex 70 8.195773934819385 9.16393202250021
    endloop
  endfacet
  facet normal 0 0.9624552364536467 0.2714404498650758
    outer loop
      vertex 0 8.195773934819385 9.16393202250021
      vertex 0 8.110520318409293 9.466218544576378
      vertex 70 8.110520318409293 9.466218544576378
    endloop
  endfacet
  facet normal 0 0.9081431738250803 0.41865973753743047
    outer loop
      vertex 0 8.435973903246529 8.584038001041813
      vertex 0 8.304481869954852 8.869266270539642
      vertex 70 8.304481869954852 8.869266270539642
    endloop
  endfacet
  facet normal 0 0.9807852804032309 0.195090322016126
    outer loop
      vertex 0 8.110520318409293 9.466218544576378
      vertex 0 8.049246637619449 9.774262139839077
      vertex 70 8.049246637619449 9.774262139839077
    endloop
  endfacet
  facet normal 0 0.9930684569549258 0.11753739745784068
    outer loop
      vertex 0 8.022528801195186 10
      vertex 70 8.049246637619449 9.774262139839077
      vertex 0 8.049246637619449 9.774262139839077
    endloop
  endfacet
  facet normal 0 0.6788007455329448 0.7343225094356828
    outer loop
      vertex 0 9.17157287525381 7.5715728752538105
      vertex 70 9.17157287525381 7.5715728752538105
      vertex 0 9.402207806679264 7.358376137599876
    endloop
  endfacet
  facet normal 0 0.734322509435684 0.6788007455329433
    outer loop
      vertex 0 9.17157287525381 7.5715728752538105
      vertex 0 8.958376137599876 7.802207806679266
      vertex 70 8.958376137599876 7.802207806679266
    endloop
  endfacet
  facet normal 0 -0.03925981575906742 0.9992290362407229
    outer loop
      vertex 0 12 6.4
      vertex 70 12 6.4
      vertex 0 12.31383638291138 6.412330665067488
    endloop
  endfacet
  facet normal 0 -0.11753739745783834 0.9930684569549262
    outer loop
      vertex 0 12.31383638291138 6.412330665067488
      vertex 70 12.31383638291138 6.412330665067488
      vertex 0 12.625737860160923 6.449246637619449
    endloop
  endfacet
  facet normal 0 -0.19509032201612875 0.9807852804032304
    outer loop
      vertex 0 12.625737860160923 6.449246637619449
      vertex 70 12.625737860160923 6.449246637619449
      vertex 0 12.933781455423622 6.510520318409294
    endloop
  endfacet
  facet normal 0 -0.2714404498650732 0.9624552364536477
    outer loop
      vertex 0 12.933781455423622 6.510520318409294
      vertex 70 12.933781455423622 6.510520318409294
      vertex 0 13.23606797749979 6.595773934819386
    endloop
  endfacet
  facet normal 0 -0.3461170570774947 0.9381913359224835
    outer loop
      vertex 0 13.23606797749979 6.595773934819386
      vertex 70 13.23606797749979 6.595773934819386
      vertex 0 13.530733729460358 6.704481869954853
    endloop
  endfacet
  facet normal 0 -0.41865973753742813 0.9081431738250813
    outer loop
      vertex 0 13.530733729460358 6.704481869954853
      vertex 70 13.530733729460358 6.704481869954853
      vertex 0 13.815961998958187 6.835973903246529
    endloop
  endfacet
  facet normal 0 -0.4886212414969548 0.8724960070727973
    outer loop
      vertex 0 13.815961998958187 6.835973903246529
      vertex 70 13.815961998958187 6.835973903246529
      vertex 0 14.089994258863795 6.989439342583632
    endloop
  endfacet
  facet normal 0 -0.5555702330195998 0.8314696123025469
    outer loop
      vertex 0 14.089994258863795 6.989439342583632
      vertex 70 14.089994258863795 6.989439342583632
      vertex 0 14.351141009169893 7.1639320225002106
    endloop
  endfacet
  facet normal 0 -0.6190939493098334 0.7853169308807454
    outer loop
      vertex 0 14.351141009169893 7.1639320225002106
      vertex 70 14.351141009169893 7.1639320225002106
      vertex 0 14.597792193320736 7.358376137599876
    endloop
  endfacet
  facet normal 0 -0.6788007455329448 0.7343225094356828
    outer loop
      vertex 0 14.597792193320736 7.358376137599876
      vertex 70 14.597792193320736 7.358376137599876
      vertex 0 14.82842712474619 7.5715728752538105
    endloop
  endfacet
  facet normal 0 -0.734322509435684 0.6788007455329433
    outer loop
      vertex 0 14.82842712474619 7.5715728752538105
      vertex 70 14.82842712474619 7.5715728752538105
      vertex 0 15.041623862400124 7.802207806679266
    endloop
  endfacet
  facet normal 0 -0.7853169308807465 0.619093949309832
    outer loop
      vertex 0 15.23606797749979 8.048858990830109
      vertex 0 15.041623862400124 7.802207806679266
      vertex 70 15.041623862400124 7.802207806679266
    endloop
  endfacet
  facet normal 0 -0.8314696123025451 0.5555702330196025
    outer loop
      vertex 0 15.410560657416369 8.310005741136205
      vertex 0 15.23606797749979 8.048858990830109
      vertex 70 15.23606797749979 8.048858990830109
    endloop
  endfacet
  facet normal 0 -0.8724960070727973 0.4886212414969548
    outer loop
      vertex 0 15.564026096753471 8.584038001041813
      vertex 0 15.410560657416369 8.310005741136205
      vertex 70 15.410560657416369 8.310005741136205
    endloop
  endfacet
  facet normal 0 -0.9081431738250803 0.41865973753743047
    outer loop
      vertex 0 15.695518130045148 8.869266270539642
      vertex 0 15.564026096753471 8.584038001041813
      vertex 70 15.564026096753471 8.584038001041813
    endloop
  endfacet
  facet normal 0 -0.9381913359224845 0.3461170570774923
    outer loop
      vertex 0 15.804226065180615 9.16393202250021
      vertex 0 15.695518130045148 8.869266270539642
      vertex 70 15.695518130045148 8.869266270539642
    endloop
  endfacet
  facet normal 0 -0.9624552364536467 0.2714404498650758
    outer loop
      vertex 0 15.889479681590707 9.466218544576378
      vertex 0 15.804226065180615 9.16393202250021
      vertex 70 15.804226065180615 9.16393202250021
    endloop
  endfacet
  facet normal 0 -0.9807852804032309 0.195090322016126
    outer loop
      vertex 0 15.950753362380551 9.774262139839077
      vertex 0 15.889479681590707 9.466218544576378
      vertex 70 15.889479681590707 9.466218544576378
    endloop
  endfacet
  facet normal 0 -0.9930684569549258 0.11753739745784068
    outer loop
      vertex 0 15.977471198804814 10
      vertex 0 15.950753362380551 9.774262139839077
      vertex 70 15.977471198804814 10
    endloop
  endfacet
  facet normal 0 0.41865973753742813 0.9081431738250813
    outer loop
      vertex 0 10.469266270539642 6.704481869954853
      vertex 70 10.184038001041813 6.835973903246529
      vertex 70 10.469266270539642 6.704481869954853
    endloop
  endfacet
  facet normal 0 0.6788007455329448 0.7343225094356828
    outer loop
      vertex 0 9.402207806679264 7.358376137599876
      vertex 70 9.17157287525381 7.5715728752538105
      vertex 70 9.402207806679264 7.358376137599876
    endloop
  endfacet
  facet normal 0 0.6190939493098334 0.7853169308807454
    outer loop
      vertex 0 9.648858990830107 7.1639320225002106
      vertex 70 9.402207806679264 7.358376137599876
      vertex 70 9.648858990830107 7.1639320225002106
    endloop
  endfacet
  facet normal 0 0.4886212414969548 0.8724960070727973
    outer loop
      vertex 0 10.184038001041813 6.835973903246529
      vertex 70 9.910005741136205 6.989439342583632
      vertex 70 10.184038001041813 6.835973903246529
    endloop
  endfacet
  facet normal 0 0.5555702330195998 0.8314696123025469
    outer loop
      vertex 0 9.910005741136205 6.989439342583632
      vertex 70 9.648858990830107 7.1639320225002106
      vertex 70 9.910005741136205 6.989439342583632
    endloop
  endfacet
  facet normal 0 0.2714404498650732 0.9624552364536477
    outer loop
      vertex 0 11.066218544576378 6.510520318409294
      vertex 70 10.76393202250021 6.595773934819386
      vertex 70 11.066218544576378 6.510520318409294
    endloop
  endfacet
  facet normal 0 0.3461170570774947 0.9381913359224835
    outer loop
      vertex 0 10.76393202250021 6.595773934819386
      vertex 70 10.469266270539642 6.704481869954853
      vertex 70 10.76393202250021 6.595773934819386
    endloop
  endfacet
  facet normal 0 0.19509032201612875 0.9807852804032304
    outer loop
      vertex 0 11.374262139839077 6.449246637619449
      vertex 70 11.066218544576378 6.510520318409294
      vertex 70 11.374262139839077 6.449246637619449
    endloop
  endfacet
  facet normal 0 0.11753739745783834 0.9930684569549262
    outer loop
      vertex 0 11.68616361708862 6.412330665067488
      vertex 70 11.374262139839077 6.449246637619449
      vertex 70 11.68616361708862 6.412330665067488
    endloop
  endfacet
  facet normal 0 0.03925981575906742 0.9992290362407229
    outer loop
      vertex 0 12 6.4
      vertex 70 11.68616361708862 6.412330665067488
      vertex 70 12 6.4
    endloop
  endfacet
  facet normal 0 0.7853169308807465 0.619093949309832
    outer loop
      vertex 0 8.958376137599876 7.802207806679266
      vertex 70 8.76393202250021 8.048858990830109
      vertex 70 8.958376137599876 7.802207806679266
    endloop
  endfacet
  facet normal 0 0.8724960070727973 0.4886212414969548
    outer loop
      vertex 0 8.589439342583631 8.310005741136205
      vertex 70 8.435973903246529 8.584038001041813
      vertex 70 8.589439342583631 8.310005741136205
    endloop
  endfacet
  facet normal 0 0.8314696123025451 0.5555702330196025
    outer loop
      vertex 0 8.76393202250021 8.048858990830109
      vertex 70 8.589439342583631 8.310005741136205
      vertex 70 8.76393202250021 8.048858990830109
    endloop
  endfacet
  facet normal 0 0.9081431738250803 0.41865973753743047
    outer loop
      vertex 0 8.435973903246529 8.584038001041813
      vertex 70 8.304481869954852 8.869266270539642
      vertex 70 8.435973903246529 8.584038001041813
    endloop
  endfacet
  facet normal 0 0.9624552364536467 0.2714404498650758
    outer loop
      vertex 0 8.195773934819385 9.16393202250021
      vertex 70 8.110520318409293 9.466218544576378
      vertex 70 8.195773934819385 9.16393202250021
    endloop
  endfacet
  facet normal 0 0.9381913359224845 0.3461170570774923
    outer loop
      vertex 0 8.304481869954852 8.869266270539642
      vertex 70 8.195773934819385 9.16393202250021
      vertex 70 8.304481869954852 8.869266270539642
    endloop
  endfacet
  facet normal 0 0.9807852804032309 0.195090322016126
    outer loop
      vertex 0 8.110520318409293 9.466218544576378
      vertex 70 8.049246637619449 9.774262139839077
      vertex 70 8.110520318409293 9.466218544576378
    endloop
  endfacet
  facet normal 0 0.9930684569549258 0.11753739745784068
    outer loop
      vertex 70 8.022528801195186 10
      vertex 70 8.049246637619449 9.774262139839077
      vertex 0 8.022528801195186 10
    endloop
  endfacet
  facet normal 0 0.734322509435684 0.6788007455329433
    outer loop
      vertex 0 9.17157287525381 7.5715728752538105
      vertex 70 8.958376137599876 7.802207806679266
      vertex 70 9.17157287525381 7.5715728752538105
    endloop
  endfacet
  facet normal 0 -0.03925981575906742 0.9992290362407229
    outer loop
      vertex 0 12.31383638291138 6.412330665067488
      vertex 70 12 6.4
      vertex 70 12.31383638291138 6.412330665067488
    endloop
  endfacet
  facet normal 0 -0.11753739745783834 0.9930684569549262
    outer loop
      vertex 0 12.625737860160923 6.449246637619449
      vertex 70 12.31383638291138 6.412330665067488
      vertex 70 12.625737860160923 6.449246637619449
    endloop
  endfacet
  facet normal 0 -0.19509032201612875 0.9807852804032304
    outer loop
      vertex 0 12.933781455423622 6.510520318409294
      vertex 70 12.625737860160923 6.449246637619449
      vertex 70 12.933781455423622 6.510520318409294
    endloop
  endfacet
  facet normal 0 -0.2714404498650732 0.9624552364536477
    outer loop
      vertex 0 13.23606797749979 6.595773934819386
      vertex 70 12.933781455423622 6.510520318409294
      vertex 70 13.23606797749979 6.595773934819386
    endloop
  endfacet
  facet normal 0 -0.3461170570774947 0.9381913359224835
    outer loop
      vertex 0 13.530733729460358 6.704481869954853
      vertex 70 13.23606797749979 6.595773934819386
      vertex 70 13.530733729460358 6.704481869954853
    endloop
  endfacet
  facet normal 0 -0.41865973753742813 0.9081431738250813
    outer loop
      vertex 0 13.815961998958187 6.835973903246529
      vertex 70 13.530733729460358 6.704481869954853
      vertex 70 13.815961998958187 6.835973903246529
    endloop
  endfacet
  facet normal 0 -0.4886212414969548 0.8724960070727973
    outer loop
      vertex 0 14.089994258863795 6.989439342583632
      vertex 70 13.815961998958187 6.835973903246529
      vertex 70 14.089994258863795 6.989439342583632
    endloop
  endfacet
  facet normal 0 -0.5555702330195998 0.8314696123025469
    outer loop
      vertex 0 14.351141009169893 7.1639320225002106
      vertex 70 14.089994258863795 6.989439342583632
      vertex 70 14.351141009169893 7.1639320225002106
    endloop
  endfacet
  facet normal 0 -0.6190939493098334 0.7853169308807454
    outer loop
      vertex 0 14.597792193320736 7.358376137599876
      vertex 70 14.351141009169893 7.1639320225002106
      vertex 70 14.597792193320736 7.358376137599876
    endloop
  endfacet
  facet normal 0 -0.6788007455329448 0.7343225094356828
    outer loop
      vertex 0 14.82842712474619 7.5715728752538105
      vertex 70 14.597792193320736 7.358376137599876
      vertex 70 14.82842712474619 7.5715728752538105
    endloop
  endfacet
  facet normal 0 -0.734322509435684 0.6788007455329433
    outer loop
      vertex 0 15.041623862400124 7.802207806679266
      vertex 70 14.82842712474619 7.5715728752538105
      vertex 70 15.041623862400124 7.802207806679266
    endloop
  endfacet
  facet normal 0 -0.7853169308807465 0.619093949309832
    outer loop
      vertex 0 15.23606797749979 8.048858990830109
      vertex 70 15.041623862400124 7.802207806679266
      vertex 70 15.23606797749979 8.048858990830109
    endloop
  endfacet
  facet normal 0 -0.8314696123025451 0.5555702330196025
    outer loop
      vertex 0 15.410560657416369 8.310005741136205
      vertex 70 15.23606797749979 8.048858990830109
      vertex 70 15.410560657416369 8.310005741136205
    endloop
  endfacet
  facet normal 0 -0.8724960070727973 0.4886212414969548
    outer loop
      vertex 0 15.564026096753471 8.584038001041813
      vertex 70 15.410560657416369 8.310005741136205
      vertex 70 15.564026096753471 8.584038001041813
    endloop
  endfacet
  facet normal 0 -0.9081431738250803 0.41865973753743047
    outer loop
      vertex 0 15.695518130045148 8.869266270539642
      vertex 70 15.564026096753471 8.584038001041813
      vertex 70 15.695518130045148 8.869266270539642
    endloop
  endfacet
  facet normal 0 -0.9381913359224845 0.3461170570774923
    outer loop
      vertex 0 15.804226065180615 9.16393202250021
      vertex 70 15.695518130045148 8.869266270539642
      vertex 70 15.804226065180615 9.16393202250021
    endloop
  endfacet
  facet normal 0 -0.9624552364536467 0.2714404498650758
    outer loop
      vertex 0 15.889479681590707 9.466218544576378
      vertex 70 15.804226065180615 9.16393202250021
      vertex 70 15.889479681590707 9.466218544576378
    endloop
  endfacet
  facet normal 0 -0.9807852804032309 0.195090322016126
    outer loop
      vertex 0 15.950753362380551 9.774262139839077
      vertex 70 15.889479681590707 9.466218544576378
      vertex 70 15.950753362380551 9.774262139839077
    endloop
  endfacet
  facet normal 0 -0.9930684569549258 0.11753739745784068
    outer loop
      vertex 70 15.977471198804814 10
      vertex 0 15.950753362380551 9.774262139839077
      vertex 70 15.950753362380551 9.774262139839077
    endloop
  endfacet
endsolid OpenSCAD_Model
